<?xml version="1.0" encoding="UTF-8" standalone="no"?>
<svg width="455px" height="15px" viewBox="0 0 455 15" version="1.1" xmlns="http://www.w3.org/2000/svg" xmlns:xlink="http://www.w3.org/1999/xlink">
    <!-- Generator: Sketch 39.1 (31720) - http://www.bohemiancoding.com/sketch -->
    <title>Page 1</title>
    <desc>Created with Sketch.</desc>
    <defs></defs>
    <g id="Page-1" stroke="none" stroke-width="1" fill="none" fill-rule="evenodd" stroke-linecap="round" stroke-linejoin="round">
        <path d="M4,4 C11.2094564,4 11.2094564,11 18.4189127,11 C25.6283691,11 25.6283691,4 32.8383149,4 C40.0477713,4 40.0477713,11 47.2572276,11 C54.466684,11 54.466684,4 61.6761403,4 C68.8841282,4 68.8841282,11 76.092116,11 C83.3010828,11 83.3010828,4 90.5095602,4 C97.718527,4 97.718527,11 104.927494,11 C112.135971,11 112.135971,4 119.343959,4 C126.552926,4 126.552926,11 133.762382,11 C140.971839,11 140.971839,4 148.181784,4 C155.390751,4 155.390751,11 162.599718,11 C169.808685,11 169.808685,4 177.017652,4 C184.226619,4 184.226619,11 191.435586,11 C198.644552,11 198.644552,4 205.854009,4 C213.063465,4 213.063465,11 220.272432,11 C227.482867,11 227.482867,4 234.692813,4 C241.902269,4 241.902269,11 249.111726,11 C256.321672,11 256.321672,4 263.531618,4 C270.741563,4 270.741563,11 277.95102,11 C285.160476,11 285.160476,4 292.370422,4 C299.580368,4 299.580368,11 306.790314,11 C314.000749,11 314.000749,4 321.210695,4 C328.419662,4 328.419662,11 335.628139,11 C342.838085,11 342.838085,4 350.047541,4 C357.256998,4 357.256998,11 364.466944,11 C371.677379,11 371.677379,4 378.887814,4 C386.098739,4 386.098739,11 393.309174,11 C400.520589,11 400.520589,4 407.731514,4 C414.941949,4 414.941949,11 422.152874,11 C429.364778,11 429.364778,4 436.576682,4 C443.788096,4 443.788096,11 451,11" stroke="#282725" stroke-width="7"></path>
    </g>
</svg>